<?xml version="1.0" encoding="UTF-8"?>
<svg id="Layer_1" data-name="Layer 1" xmlns="http://www.w3.org/2000/svg" viewBox="0 0 2048 2048">
  <defs>
    <style>
      .cls-1 {
        fill: #092655;
        fill-rule: evenodd;
      }

      .cls-1, .cls-2 {
        stroke-width: 0px;
      }

      .cls-2 {
        fill: #fff;
      }

      .cls-3 {
        fill: none;
        stroke: #092655;
        stroke-miterlimit: 10;
        stroke-width: 35px;
      }
    </style>
  </defs>
  <circle class="cls-2" cx="1024" cy="1024" r="1024"/>
  <circle class="cls-3" cx="377.75" cy="1110.25" r="215.75"/>
  <path class="cls-1" d="M486.55,1128h106.37c.47-5.84.73-11.74.73-17.7,0-3.12-.08-6.21-.21-9.3h-107.07c2.58-51.12,21.49-97.93,51.62-135.34-6.72-7.43-13.95-14.38-21.63-20.82-35.23,42.87-57.28,96.98-59.92,156.15h-60.43v-205.69c-5.97-.5-12.01-.76-18.11-.76-2.98,0-5.94.08-8.89.2v206.26h-72.53c-3.1-58.26-25.02-111.52-59.78-153.83-7.58,6.57-14.69,13.66-21.3,21.22,29.46,36.77,48.1,82.58,51.11,132.61h-104.14c-.13,3.08-.21,6.18-.21,9.3,0,5.96.25,11.86.73,17.7h103.72c-2.57,48.24-19.68,92.62-47.03,128.84,6.81,7.36,14.13,14.24,21.9,20.59,32.29-41.69,52.43-93.27,55.08-149.43h72.46v197.85c2.95.12,5.91.2,8.89.2,6.1,0,12.14-.27,18.11-.76v-197.28h60.57c3.15,56.53,24.01,108.32,57.13,149.93,7.79-6.32,15.12-13.17,21.96-20.49-28.2-36.17-46.06-80.8-49.11-129.44Z"/>
  <g>
    <path class="cls-1" d="M1735.13,1091.98c2.64-59.17,24.69-113.29,59.92-156.15-33.13-27.77-74.72-45.75-120.35-49.54v205.69h60.43Z"/>
    <path class="cls-1" d="M1647.7,1091.98v-206.26c-50.52,2.05-96.56,21.45-132.32,52.43,34.76,42.31,56.68,95.57,59.78,153.83h72.54Z"/>
    <path class="cls-1" d="M1545.2,1091.98c-3-50.03-21.65-95.84-51.11-132.61-31.25,35.75-50.88,81.92-53.03,132.61h104.14Z"/>
    <path class="cls-1" d="M1765.25,1118.98c3.06,48.65,20.92,93.27,49.11,129.44,32.19-34.5,53.21-79.57,57.26-129.44h-106.37Z"/>
    <path class="cls-1" d="M1674.7,1118.98v197.28c44.42-3.69,85.01-20.84,117.7-47.35-33.11-41.61-53.98-93.41-57.13-149.93h-60.57,0Z"/>
    <path class="cls-1" d="M1545.3,1118.98h-103.73c4.03,49.58,24.82,94.41,56.69,128.84,27.35-36.22,44.46-80.6,47.03-128.84h.01Z"/>
    <path class="cls-1" d="M1872.14,1091.98c-2.21-51.99-22.8-99.21-55.45-135.34-30.13,37.4-49.04,84.21-51.62,135.34h107.07Z"/>
    <path class="cls-1" d="M1575.25,1118.98c-2.65,56.16-22.79,107.74-55.08,149.43,35.04,28.64,79.24,46.46,127.54,48.42v-197.85h-72.46Z"/>
  </g>
  <path class="cls-1" d="M1869.08,1011.91l-167.26-624.24c10.72-11.22,17.31-26.41,17.31-43.15,0-34.52-27.98-62.5-62.5-62.5-25.11,0-46.74,14.81-56.68,36.16h-478.68c-11.3-43.16-50.56-75.01-97.26-75.01s-86.58,32.35-97.52,76.02v-.84h-491.72c-10.04-21.09-31.54-35.67-56.46-35.67-34.52,0-62.5,27.98-62.5,62.5,0,15.92,5.96,30.44,15.76,41.48l-169.87,633.98,32.23,8.64,167.2-624c5.46,1.56,11.22,2.41,17.18,2.41,4.61,0,9.1-.51,13.43-1.46l167.04,623.41,32.23-8.64-169.09-631.06c5.94-5.79,10.74-12.75,14.01-20.52h490.56v-1.19c7.09,28.3,26.17,51.84,51.53,64.91v1235.03h-166c-44.18,0-80,35.81-80,80v12.53h-185.61c-15.91,0-31.17,6.32-42.43,17.57-11.25,11.25-17.57,26.52-17.57,42.43v38.65h1075.2v-38.65c0-15.91-6.32-31.18-17.57-42.43-11.25-11.25-26.51-17.57-42.43-17.57h-185.6v-12.53c0-44.19-35.82-80-80.01-80h-165.99V433.14c25.06-12.91,43.98-36.05,51.27-63.89h477.95c2.26,5.25,5.23,10.12,8.77,14.51l-168.22,627.8,32.23,8.64,165.13-616.29c6.13,2.01,12.68,3.12,19.49,3.12,5.29,0,10.42-.66,15.32-1.9l164.9,615.42,32.23-8.64ZM354.13,345.19c0-13.37,10.84-24.2,24.2-24.2s24.2,10.84,24.2,24.2-10.84,24.2-24.2,24.2-24.2-10.84-24.2-24.2ZM1024.06,304.79c21.5,0,38.93,17.43,38.93,38.93s-17.43,38.93-38.93,38.93-38.93-17.43-38.93-38.93,17.43-38.93,38.93-38.93ZM1632.46,344.53c0-13.37,10.84-24.2,24.2-24.2s24.2,10.84,24.2,24.2-10.84,24.2-24.2,24.2-24.2-10.84-24.2-24.2Z"/>
  <circle class="cls-3" cx="1655.83" cy="1101.16" r="215.75"/>
</svg>