<?xml version="1.0" encoding="UTF-8" standalone="no"?>
<!DOCTYPE svg PUBLIC "-//W3C//DTD SVG 1.1//EN" "http://www.w3.org/Graphics/SVG/1.1/DTD/svg11.dtd">
<svg width="100%" height="100%" viewBox="0 0 2048 2048" version="1.1" xmlns="http://www.w3.org/2000/svg" xmlns:xlink="http://www.w3.org/1999/xlink" xml:space="preserve" xmlns:serif="http://www.serif.com/" style="fill-rule:evenodd;clip-rule:evenodd;stroke-linejoin:round;stroke-miterlimit:2;">
    <g>
        <circle cx="1024" cy="1024" r="1024" style="fill:rgb(77,126,205);"/>
        <path d="M1120.03,4.452C1640.24,52.932 2048,491.223 2048,1024C2048,1589.16 1589.16,2048 1024,2048C984.382,2048 945.287,2045.75 906.859,2041.36C1096.89,1898.67 1234.32,1355.41 1024,1024C852.281,753.41 951.979,180.512 1120.03,4.452Z" style="fill:rgb(9,38,85);"/>
    </g>
    <path d="M920.832,404.299C943.754,372.02 981.435,350.944 1024,350.944C1081.11,350.944 1129.43,388.884 1145.1,440.905C1349.08,473.882 1524.8,496.508 1595.66,455.345C1604.48,450.226 1611.95,442.894 1619.43,435.761C1642.46,411.586 1674.97,396.511 1710.97,396.511C1780.76,396.511 1837.42,453.172 1837.42,522.962C1837.42,575.989 1804.71,621.436 1758.39,640.207L1758.39,978.739C1883.04,1001.14 1977.75,1110.26 1977.75,1241.32C1977.75,1388.56 1858.21,1508.1 1710.97,1508.1C1563.72,1508.1 1444.18,1388.56 1444.18,1241.32C1444.18,1110.26 1538.89,1001.14 1663.55,978.739L1663.55,640.207C1652.45,635.709 1642.13,629.68 1632.85,622.378C1626.3,618.243 1619.99,614.454 1615.75,613.723C1427.03,581.177 1268.44,556.837 1134.38,539.089C1124.98,555.864 1111.87,570.283 1096.15,581.226C1084.52,1058.56 1083.41,1517.83 1174.09,1797.77L873.908,1791.47C973.205,1739.54 963.635,1189.03 944.254,575.503C924.498,559.419 909.686,537.497 902.459,512.376C696.421,492.92 571.24,494.928 483.997,506.02C467.953,508.06 464.371,513.389 463.456,520.299C463.475,521.191 463.484,522.076 463.484,522.962C463.484,575.989 430.774,621.436 384.452,640.207L384.452,978.739C509.109,1001.14 603.82,1110.26 603.82,1241.32C603.82,1388.56 484.277,1508.1 337.033,1508.1C189.79,1508.1 70.246,1388.56 70.246,1241.32C70.246,1110.26 164.958,1001.14 289.614,978.739L289.614,640.207C243.292,621.436 210.582,575.989 210.582,522.962C210.582,470.892 242.123,426.13 287.124,406.757C418.657,337.549 670.512,365.07 920.832,404.299ZM337.033,491.349C354.481,491.349 368.646,505.514 368.646,522.962C368.646,540.41 354.481,554.575 337.033,554.575C319.586,554.575 305.42,540.41 305.42,522.962C305.42,505.514 319.586,491.349 337.033,491.349ZM1710.97,491.349C1728.41,491.349 1742.58,505.514 1742.58,522.962C1742.58,540.41 1728.41,554.575 1710.97,554.575C1693.52,554.575 1679.35,540.41 1679.35,522.962C1679.35,505.514 1693.52,491.349 1710.97,491.349Z" style="fill:rgb(9,38,85);"/>
    <path d="M1122.1,1557.24C1134.56,1646.92 1151.47,1727.93 1174.09,1797.77L1065.65,1795.5C1092.19,1723.25 1111.96,1641.86 1122.1,1557.24ZM963.102,366.568C981.173,356.61 1001.93,350.944 1024,350.944C1081.11,350.944 1129.43,388.884 1145.1,440.905C1349.08,473.882 1524.8,496.508 1595.66,455.345C1604.48,450.226 1611.95,442.894 1619.43,435.761C1642.46,411.586 1674.97,396.511 1710.97,396.511C1780.76,396.511 1837.42,453.172 1837.42,522.962C1837.42,575.989 1804.71,621.436 1758.39,640.207L1758.39,978.739C1883.04,1001.14 1977.75,1110.26 1977.75,1241.32C1977.75,1388.56 1858.21,1508.1 1710.97,1508.1C1563.72,1508.1 1444.18,1388.56 1444.18,1241.32C1444.18,1110.26 1538.89,1001.14 1663.55,978.739L1663.55,640.207C1652.45,635.709 1642.13,629.68 1632.85,622.378C1626.3,618.243 1619.99,614.454 1615.75,613.723C1427.03,581.177 1268.44,556.837 1134.38,539.089C1124.98,555.864 1111.87,570.283 1096.15,581.226C1091.13,787.384 1088.07,990.176 1093.52,1176.61C1076.82,1122.61 1053.93,1071.16 1024,1024C989.381,969.449 965.794,902.612 951.568,829.182C949.506,746.659 946.977,661.703 944.254,575.503C941.594,573.338 939.025,571.067 936.553,568.698C940.361,500.31 949.547,431.769 963.102,366.568ZM1710.97,491.349C1728.41,491.349 1742.58,505.514 1742.58,522.962C1742.58,540.41 1728.41,554.575 1710.97,554.575C1693.52,554.575 1679.35,540.41 1679.35,522.962C1679.35,505.514 1693.52,491.349 1710.97,491.349Z" style="fill:rgb(77,126,205);"/>
</svg>